<svg width="216" height="40" viewBox="0 0 216 40" fill="none" xmlns="http://www.w3.org/2000/svg">
<path d="M53 27.75C52.5858 27.75 52.25 28.0858 52.25 28.5C52.25 28.9142 52.5858 29.25 53 29.25V27.75ZM59 29.25C59.4142 29.25 59.75 28.9142 59.75 28.5C59.75 28.0858 59.4142 27.75 59 27.75V29.25ZM61 13.75C60.5858 13.75 60.25 14.0858 60.25 14.5C60.25 14.9142 60.5858 15.25 61 15.25V13.75ZM51 15.25C51.4142 15.25 51.75 14.9142 51.75 14.5C51.75 14.0858 51.4142 13.75 51 13.75V15.25ZM57 23.75H55V25.25H57V23.75ZM55 23.75C53.2052 23.75 51.75 22.2948 51.75 20.5H50.25C50.25 23.1232 52.3768 25.25 55 25.25V23.75ZM51.75 20.5V12.5H50.25V20.5H51.75ZM51.75 12.5C51.75 12.3622 51.8622 12.25 52 12.25V10.75C51.0338 10.75 50.25 11.5338 50.25 12.5H51.75ZM52 12.25H60V10.75H52V12.25ZM60 12.25C60.1378 12.25 60.25 12.3622 60.25 12.5H61.75C61.75 11.5338 60.9662 10.75 60 10.75V12.25ZM60.25 12.5V20.5H61.75V12.5H60.25ZM60.25 20.5C60.25 22.2948 58.7948 23.75 57 23.75V25.25C59.6232 25.25 61.75 23.1232 61.75 20.5H60.25ZM55.25 24.5V28.5H56.75V24.5H55.25ZM53 29.25H59V27.75H53V29.25ZM61 15.25H64V13.75H61V15.25ZM64 15.25C64.1378 15.25 64.25 15.3622 64.25 15.5H65.75C65.75 14.5338 64.9662 13.75 64 13.75V15.25ZM64.25 15.5V17.5H65.75V15.5H64.25ZM64.25 17.5C64.25 18.7428 63.2428 19.75 62 19.75V21.25C64.0712 21.25 65.75 19.5712 65.75 17.5H64.25ZM62 19.75H61V21.25H62V19.75ZM51 13.75H48V15.25H51V13.75ZM48 13.75C47.0338 13.75 46.25 14.5338 46.25 15.5H47.75C47.75 15.3622 47.8622 15.25 48 15.25V13.75ZM46.25 15.5V17.5H47.75V15.5H46.25ZM46.25 17.5C46.25 19.5712 47.9288 21.25 50 21.25V19.75C48.7572 19.75 47.75 18.7428 47.75 17.5H46.25ZM50 21.25H51V19.75H50V21.25Z" fill="#434B74"/>
<path d="M86.224 26.956V25.5H77.52V26.956C77.52 27.292 77.216 27.58 76.88 27.58C76.544 27.58 76.24 27.292 76.24 26.956V24.892C76.24 24.524 76.544 24.22 76.912 24.22H77.44C77.776 23.788 78.144 22.924 78.544 21.596C78.928 20.284 79.168 18.604 79.28 16.54L79.36 14.972C79.376 14.588 79.68 14.3 80.064 14.3H85.312C85.68 14.3 85.984 14.604 85.984 14.972V24.22H86.832C87.2 24.22 87.504 24.524 87.504 24.892V26.956C87.504 27.292 87.2 27.58 86.864 27.58C86.528 27.58 86.224 27.292 86.224 26.956ZM78.944 24.22H84.624V15.58H80.704L80.56 17.58C80.448 19.292 80.208 20.732 79.872 21.916C79.536 23.116 79.216 23.884 78.944 24.22ZM89.3846 24.588C88.6646 23.884 88.3126 22.988 88.3126 21.9C88.3126 20.812 88.6646 19.916 89.3846 19.196C90.0886 18.492 91.0166 18.14 92.1526 18.14C93.2886 18.14 94.2166 18.492 94.9366 19.196C95.6406 19.916 95.9926 20.812 95.9926 21.9C95.9926 22.988 95.6406 23.884 94.9366 24.588C94.2166 25.308 93.2886 25.66 92.1526 25.66C91.0166 25.66 90.0886 25.308 89.3846 24.588ZM89.6726 21.9C89.6726 23.388 90.6966 24.46 92.1526 24.46C93.6086 24.46 94.6326 23.42 94.6326 21.9C94.6326 20.412 93.6086 19.34 92.1526 19.34C90.7286 19.34 89.6726 20.38 89.6726 21.9ZM102.752 19.756C102.224 19.484 101.696 19.34 101.168 19.34C100.496 19.34 99.9199 19.58 99.4399 20.06C98.9439 20.556 98.7039 21.164 98.7039 21.9C98.7039 22.668 98.9599 23.292 99.4559 23.756C99.9519 24.22 100.56 24.46 101.296 24.46C101.888 24.46 102.4 24.3 102.832 23.964C103.008 23.82 103.168 23.756 103.328 23.756C103.472 23.756 103.584 23.804 103.696 23.916C103.808 24.028 103.872 24.156 103.872 24.316C103.872 24.492 103.808 24.636 103.696 24.732C103.008 25.356 102.176 25.66 101.2 25.66C100.048 25.66 99.1199 25.308 98.4159 24.62C97.6959 23.932 97.3439 23.036 97.3439 21.9C97.3439 20.844 97.6959 19.948 98.3839 19.228C99.0719 18.508 99.9519 18.14 100.992 18.14C101.888 18.14 102.672 18.332 103.328 18.7C103.552 18.812 103.664 19.004 103.664 19.244C103.664 19.356 103.632 19.452 103.584 19.532C103.472 19.724 103.296 19.82 103.056 19.82C102.944 19.82 102.832 19.804 102.752 19.756ZM108.363 19.58V25.004C108.427 25.788 107.019 25.788 107.083 25.004V19.58H105.051C104.267 19.644 104.267 18.236 105.051 18.3H110.395C111.179 18.236 111.179 19.644 110.395 19.58H108.363ZM119.122 18.876V25.004C119.186 25.788 117.778 25.788 117.842 25.004V20.252L113.954 25.036C113.634 25.42 113.33 25.612 113.042 25.612C112.674 25.612 112.402 25.308 112.402 24.972V18.828C112.338 18.044 113.746 18.044 113.682 18.828V23.596L117.57 18.812C117.906 18.412 118.21 18.22 118.482 18.22C118.85 18.22 119.122 18.54 119.122 18.876ZM128.921 25.26L126.777 22.268C126.569 21.948 126.569 21.596 126.777 21.276L128.697 18.572C128.857 18.332 129.049 18.22 129.289 18.22C129.689 18.22 129.945 18.492 129.945 18.828C129.945 18.988 129.897 19.116 129.817 19.212L127.881 21.772L130.009 24.588C130.105 24.716 130.153 24.86 130.153 25.004C130.153 25.34 129.913 25.612 129.545 25.612C129.289 25.612 129.081 25.5 128.921 25.26ZM124.153 22.268L122.041 25.26C121.881 25.5 121.673 25.612 121.433 25.612C121.049 25.612 120.825 25.324 120.825 25.004C120.825 24.86 120.873 24.716 120.953 24.604L123.049 21.772L121.129 19.212C121.049 19.1 121.001 18.972 121.001 18.844C121.001 18.508 121.257 18.22 121.657 18.22C121.897 18.22 122.089 18.332 122.249 18.572L124.153 21.276C124.361 21.548 124.361 21.996 124.153 22.268ZM126.105 18.828V25.004C126.169 25.788 124.761 25.788 124.825 25.004V18.828C124.761 18.044 126.169 18.044 126.105 18.828ZM132.345 21.26H136.713C136.649 20.06 135.865 19.34 134.633 19.34C133.353 19.34 132.489 20.124 132.345 21.26ZM138.041 21.436C138.041 21.596 138.041 21.708 138.025 21.788C138.009 22.044 137.737 22.3 137.481 22.3H132.424C132.537 23.644 133.513 24.46 134.937 24.46C135.609 24.46 136.201 24.316 136.697 24.028C136.809 23.964 136.937 23.932 137.049 23.932C137.209 23.932 137.353 23.996 137.481 24.14C137.545 24.22 137.577 24.316 137.577 24.428C137.577 24.636 137.513 24.78 137.385 24.86C136.633 25.388 135.785 25.66 134.841 25.66C133.673 25.66 132.745 25.324 132.041 24.636C131.337 23.948 130.985 23.036 130.985 21.9C130.985 20.812 131.321 19.916 131.977 19.196C132.633 18.492 133.545 18.14 134.697 18.14C135.641 18.14 136.441 18.444 137.081 19.052C137.721 19.676 138.041 20.46 138.041 21.436ZM146.431 18.828V25.004C146.495 25.788 145.087 25.788 145.151 25.004V22.46H141.151V25.004C141.215 25.788 139.807 25.788 139.871 25.004V18.828C139.807 18.044 141.215 18.044 141.151 18.828V21.26H145.151V18.828C145.087 18.044 146.495 18.044 146.431 18.828ZM155.45 18.876V25.004C155.514 25.788 154.106 25.788 154.17 25.004V20.252L150.282 25.036C149.962 25.42 149.658 25.612 149.37 25.612C149.002 25.612 148.73 25.308 148.73 24.972V18.828C148.666 18.044 150.074 18.044 150.01 18.828V23.596L153.898 18.812C154.234 18.412 154.538 18.22 154.81 18.22C155.178 18.22 155.45 18.54 155.45 18.876ZM157.569 24.588L158.945 22.78C158.113 22.588 157.393 21.804 157.393 20.7C157.393 19.308 158.369 18.3 160.609 18.3H162.241C162.577 18.3 162.849 18.572 162.849 18.908V25.004C162.913 25.788 161.505 25.788 161.569 25.004V23.1H160.177L158.593 25.26C158.417 25.5 158.241 25.612 158.033 25.612C157.649 25.612 157.393 25.372 157.393 25.052C157.393 24.908 157.457 24.764 157.569 24.588ZM160.097 21.9H161.569V19.5H160.401C159.265 19.5 158.753 20.012 158.753 20.732C158.753 21.436 159.409 21.9 160.097 21.9Z" fill="#434B74"/>
</svg>
